<?xml version="1.0" standalone="no"?>
<!DOCTYPE svg PUBLIC "-//W3C//DTD SVG 20010904//EN"
 "http://www.w3.org/TR/2001/REC-SVG-20010904/DTD/svg10.dtd">
<svg version="1.0" xmlns="http://www.w3.org/2000/svg"
 width="544.000000pt" height="544.000000pt" viewBox="0 0 544.000000 544.000000"
 preserveAspectRatio="xMidYMid meet">
<metadata>
Created by potrace 1.11, written by Peter Selinger 2001-2013
</metadata>
<g transform="translate(0.000000,544.000000) scale(0.100000,-0.100000)"
fill="#000000" stroke="none">
<path d="M1515 4782 c-137 -15 -280 -98 -371 -217 -40 -51 -104 -168 -104
-189 0 -9 -5 -16 -11 -16 -5 0 -8 -4 -5 -8 3 -5 -2 -21 -9 -36 -17 -32 -9 -58
9 -33 7 8 32 21 56 28 57 16 52 14 71 23 9 4 20 6 25 5 5 -1 11 0 14 1 36 14
250 20 295 9 17 -4 48 -10 70 -14 76 -11 260 -81 319 -121 19 -13 37 -24 40
-24 12 0 176 -122 176 -131 0 -5 5 -9 12 -9 12 0 238 -229 238 -241 0 -3 14
-22 30 -40 17 -19 38 -46 47 -61 20 -32 34 -37 28 -10 -22 114 -104 363 -126
387 -22 23 -8 32 44 27 40 -3 56 0 66 11 35 42 17 76 -88 170 -157 141 -396
273 -549 302 -9 2 -17 4 -17 5 0 3 -39 11 -72 15 -18 2 -41 8 -50 14 -18 9 80
7 144 -3 15 -3 48 -8 73 -11 67 -9 89 -13 155 -30 33 -9 69 -17 80 -19 11 -2
47 -13 80 -25 86 -30 88 -26 13 24 -131 88 -220 133 -344 174 -118 39 -238 54
-339 43z"/>
<path d="M3844 4778 c-3 -5 -9 -6 -14 -3 -16 10 -202 -45 -287 -86 -93 -44
-273 -157 -273 -171 0 -5 9 -4 21 2 45 25 199 69 294 85 11 2 34 6 50 9 17 3
63 8 104 11 41 3 77 8 81 10 3 2 12 0 20 -6 12 -7 11 -9 -5 -10 -25 -1 -113
-24 -200 -53 -122 -40 -306 -147 -409 -236 -49 -42 -136 -132 -137 -141 -1 -5
-2 -15 -3 -21 -1 -7 2 -23 7 -35 8 -19 16 -21 69 -18 43 3 58 0 55 -8 -44
-102 -75 -177 -72 -177 2 0 -2 -15 -10 -33 -18 -44 -57 -197 -53 -209 2 -6 27
21 55 58 28 38 67 87 87 109 20 22 36 44 36 48 0 5 5 5 10 2 6 -3 10 -3 10 2
0 4 25 34 55 65 30 31 55 55 55 53 0 -2 10 6 23 18 46 44 87 77 96 77 5 0 11
3 13 8 5 12 98 74 98 65 0 -4 4 -3 8 4 19 30 258 128 334 137 21 2 42 7 48 11
20 12 254 12 303 -1 26 -7 47 -11 47 -9 0 2 30 -8 68 -22 37 -13 75 -27 84
-30 14 -4 12 8 -13 69 -50 122 -99 199 -173 274 -75 75 -158 123 -253 145 -58
13 -222 19 -229 7z"/>
<path d="M1729 3907 c-2 -3 -41 -7 -87 -11 -132 -10 -204 -39 -276 -110 -50
-50 -90 -95 -136 -155 -3 -4 -25 -22 -49 -41 -54 -41 -104 -44 -156 -9 -19 13
-35 27 -35 30 0 3 -8 14 -18 25 -9 10 -28 40 -42 67 -14 26 -26 43 -28 38 -5
-16 66 -146 105 -189 l21 -25 -34 -24 c-19 -12 -37 -23 -39 -23 -5 0 -39 -28
-83 -67 -30 -28 -20 -30 16 -4 39 27 104 62 122 66 8 2 29 6 45 10 l30 7 -25
-21 c-14 -11 -29 -21 -35 -21 -31 -1 -219 -165 -209 -182 3 -5 20 7 37 25 54
55 171 126 232 140 6 2 15 5 20 8 12 8 141 4 172 -4 12 -3 42 -17 67 -31 26
-14 61 -28 78 -31 18 -3 37 -10 43 -14 5 -5 17 -9 25 -9 8 0 47 -3 85 -7 199
-18 203 -18 202 41 l-2 44 -40 1 c-22 1 -49 3 -60 5 -11 1 -50 5 -88 8 -71 6
-153 22 -171 34 -6 3 -18 8 -27 9 -21 3 -61 25 -80 43 -15 13 -14 19 7 65 13
27 28 51 34 53 5 2 10 9 10 14 0 16 82 98 98 98 6 0 12 5 12 10 0 6 7 10 15
10 8 0 15 4 15 9 0 5 10 11 23 14 77 20 147 32 177 32 19 0 38 5 42 10 5 6 8
5 8 -2 0 -7 7 -10 15 -7 14 6 17 64 3 64 -3 0 -13 2 -20 5 -8 3 -16 4 -19 2z"/>
<path d="M3759 3900 c-6 -4 -9 -20 -7 -36 3 -27 5 -28 60 -29 31 0 60 -3 63
-7 4 -4 13 -4 21 -1 8 3 22 2 32 -2 9 -5 25 -10 35 -11 26 -6 101 -45 109 -58
4 -6 8 -7 8 -2 0 12 87 -84 102 -114 7 -14 15 -27 18 -30 3 -3 11 -18 19 -35
12 -28 11 -31 -16 -52 -57 -46 -176 -74 -373 -89 -41 -3 -77 -9 -80 -14 -3 -5
-4 -27 -2 -48 l4 -39 94 3 c174 5 222 16 369 84 127 59 294 17 434 -108 34
-29 61 -49 61 -43 0 13 -104 121 -116 121 -6 0 -19 8 -30 18 -10 9 -36 26 -57
37 -51 26 -66 44 -35 41 28 -3 98 -35 156 -71 23 -14 42 -21 42 -16 0 6 -3 11
-7 11 -5 0 -21 11 -37 25 -16 13 -51 39 -77 56 -27 17 -49 33 -49 34 0 2 6 10
13 17 41 43 118 183 116 215 0 14 -3 12 -11 -7 -49 -109 -124 -191 -177 -195
-61 -4 -92 18 -196 139 -103 120 -134 146 -207 172 -52 19 -58 20 -133 29
-100 10 -134 12 -146 5z"/>
<path d="M1844 3867 c3 -32 14 -46 34 -45 28 2 153 -41 222 -78 61 -32 130
-84 130 -98 0 -3 -37 14 -83 39 -87 47 -153 73 -202 82 -16 3 -36 10 -42 15
-9 7 -13 7 -13 -1 0 -7 -8 -8 -22 -2 -25 9 -97 5 -173 -10 -27 -5 -61 -11 -75
-13 -142 -24 -336 -181 -250 -203 11 -3 20 -10 20 -16 0 -6 3 -8 6 -5 3 4 20
0 38 -7 36 -15 57 -20 151 -34 78 -12 70 -11 220 -15 72 -1 134 0 139 2 5 3
25 6 45 7 20 1 50 5 66 9 66 14 95 15 95 1 0 -7 -10 -16 -22 -20 -33 -11 -38
-12 -40 -15 -6 -4 -128 -21 -188 -25 -25 -2 -48 -4 -51 -4 -9 -1 -5 -74 4 -89
6 -9 12 -10 21 -3 7 6 15 8 18 5 4 -3 30 -1 60 5 49 9 65 13 116 25 106 26
232 100 261 154 14 26 14 99 1 107 -6 4 -8 10 -5 15 7 11 -76 100 -93 100 -7
0 -12 5 -12 10 0 6 -7 10 -15 10 -8 0 -15 4 -15 8 0 8 -24 19 -143 63 -44 16
-92 30 -109 31 -16 1 -32 6 -34 10 -3 4 -18 8 -34 8 -24 0 -28 -4 -26 -23z"/>
<path d="M3628 3885 c-3 -3 -18 -8 -34 -11 -86 -14 -248 -78 -286 -112 -10 -8
-18 -12 -18 -9 0 13 -71 -68 -87 -98 -21 -39 -20 -105 1 -137 9 -13 35 -38 59
-54 65 -46 154 -83 237 -98 8 -2 22 -6 30 -9 8 -3 45 -10 82 -14 l66 -9 4 26
c2 14 1 36 -2 49 -5 22 -12 25 -60 27 -120 6 -218 27 -267 59 -26 18 -22 41 5
26 9 -5 31 -11 47 -14 17 -3 42 -9 57 -12 16 -3 46 -6 68 -8 22 -1 40 -4 40
-7 0 -7 251 -4 327 4 71 8 202 39 240 58 52 26 53 44 2 93 -26 24 -49 41 -53
38 -3 -4 -6 -1 -6 5 0 7 -7 12 -15 12 -8 0 -15 3 -15 8 0 24 -221 83 -315 84
-61 1 -152 -9 -167 -18 -5 -3 -20 -7 -33 -10 -30 -5 -121 -47 -187 -86 -27
-15 -48 -23 -48 -18 0 13 72 70 89 70 8 0 11 3 8 7 -10 9 115 61 202 84 41 10
75 20 77 22 1 1 4 13 6 27 2 20 -2 26 -22 28 -14 2 -28 0 -32 -3z"/>
<path d="M2510 3690 c-1 -89 -6 -175 -10 -175 -2 0 -5 -21 -14 -85 -7 -55 -9
-63 -26 -120 -8 -25 -15 -49 -16 -55 -1 -14 -12 -38 -47 -115 -17 -36 -31 -67
-31 -70 -3 -16 -138 -210 -147 -210 -5 0 -9 -5 -9 -10 0 -6 -9 -21 -21 -33
-36 -38 -79 -105 -93 -144 -15 -43 -13 -136 3 -141 6 -2 11 -9 11 -16 0 -18
31 -78 37 -73 2 3 -2 25 -10 49 -8 23 -14 66 -13 94 3 63 19 86 176 238 141
138 144 136 125 -69 -12 -130 -12 -174 0 -230 10 -48 42 -115 56 -115 3 0 18
-11 34 -24 15 -13 53 -31 84 -41 31 -10 63 -20 71 -24 17 -8 164 -6 195 2 11
3 32 8 48 12 15 4 27 11 27 17 0 5 4 7 9 4 13 -8 95 48 118 80 12 16 26 48 32
71 11 42 16 168 7 208 -9 45 -17 177 -11 195 9 30 28 16 159 -114 147 -146
164 -178 143 -271 -5 -22 -11 -51 -13 -65 -5 -24 -5 -24 10 -5 9 11 16 27 16
36 0 9 3 19 7 23 5 4 13 26 18 49 15 58 -4 128 -52 193 -47 64 -156 207 -163
214 -5 5 -23 36 -44 75 -6 11 -15 27 -21 35 -5 8 -10 21 -12 29 -1 8 -8 18
-15 22 -7 5 -9 9 -4 9 5 0 4 6 -2 13 -17 22 -63 165 -76 242 -3 17 -8 41 -11
55 -7 33 -16 137 -19 233 -1 42 -6 80 -9 84 -4 3 -7 0 -8 -8 0 -8 -2 -25 -4
-39 -30 -253 -21 -798 18 -1048 7 -45 12 -105 12 -134 -1 -46 -5 -54 -38 -83
-21 -18 -61 -39 -90 -48 -57 -16 -233 -21 -243 -6 -3 5 -14 9 -25 9 -24 0 -91
33 -108 54 -16 19 -30 117 -20 142 3 11 9 42 13 69 3 28 8 64 10 80 21 160 29
745 13 907 -12 125 -25 138 -27 28z"/>
<path d="M1915 2694 c-28 -20 -68 -45 -90 -56 -22 -11 -43 -26 -47 -32 -4 -6
-8 -7 -8 -2 0 5 -6 4 -12 -1 -16 -13 -140 -59 -193 -72 -106 -26 -241 -38
-335 -28 -91 9 -102 10 -117 20 -7 5 -13 6 -13 2 0 -13 -117 70 -152 108 -44
46 -48 36 -22 -48 9 -27 17 -54 18 -60 26 -102 71 -216 143 -360 60 -120 163
-298 175 -303 4 -2 8 -8 8 -14 0 -5 11 -24 25 -42 14 -18 25 -38 25 -44 0 -6
3 -12 8 -14 4 -1 36 -43 71 -93 78 -109 224 -290 311 -385 14 -15 48 -54 76
-86 146 -167 164 -176 59 -30 -41 57 -75 109 -75 115 0 6 -4 11 -10 11 -5 0
-10 6 -10 14 0 8 -4 16 -8 18 -24 9 -298 455 -287 466 2 3 19 -7 37 -22 45
-36 96 -78 113 -93 7 -7 17 -13 21 -13 4 0 15 -6 23 -14 29 -26 155 -83 242
-110 107 -33 146 -33 59 0 -81 30 -234 105 -238 116 -2 4 -8 8 -13 8 -50 0
-349 282 -349 329 0 6 -4 11 -9 11 -13 0 -206 399 -215 445 -1 6 -5 16 -10 23
-6 10 -3 12 10 10 36 -6 76 -33 92 -63 9 -16 19 -32 22 -35 3 -3 26 -36 50
-75 25 -38 48 -71 52 -73 5 -2 8 -8 8 -13 0 -12 148 -234 186 -278 59 -69 98
-104 133 -119 30 -13 94 -16 413 -18 341 -2 379 -1 396 14 11 9 65 77 121 150
57 73 111 137 121 142 38 20 80 12 111 -22 26 -29 148 -185 203 -260 16 -21
28 -26 75 -28 91 -4 91 -4 81 -14 -5 -5 -205 -9 -477 -10 -439 -1 -468 -2
-468 -18 0 -10 3 -17 6 -15 3 1 13 -4 22 -12 10 -7 17 -11 17 -8 0 3 15 1 32
-4 65 -18 514 -33 524 -17 3 5 11 5 17 0 27 -21 396 14 423 40 11 11 -10 38
-29 38 -15 0 -18 3 -10 11 8 8 104 12 300 13 l288 2 41 26 c37 24 115 107 157
168 31 44 221 333 262 397 33 51 46 63 77 71 21 6 38 9 38 7 0 -1 -8 -20 -17
-41 -9 -22 -17 -41 -18 -44 -2 -5 -13 -34 -47 -113 -55 -132 -158 -314 -208
-367 -8 -9 -31 -34 -50 -55 -30 -34 -112 -109 -145 -134 -53 -38 -106 -71
-114 -71 -6 0 -11 -4 -11 -10 0 -5 -6 -10 -13 -10 -7 0 -29 -11 -50 -25 -20
-14 -41 -23 -46 -20 -6 3 -12 1 -15 -4 -6 -10 -105 -50 -140 -57 -10 -2 -21
-6 -24 -9 -9 -9 31 -6 68 6 39 11 59 17 92 24 12 2 26 9 32 15 5 5 18 10 27
10 19 0 170 86 181 104 4 6 8 7 8 2 0 -5 8 0 18 10 9 11 35 33 57 49 21 16 47
37 57 47 34 34 18 -7 -48 -122 -37 -63 -73 -127 -80 -141 -8 -15 -21 -32 -29
-39 -8 -7 -15 -18 -15 -25 0 -8 -3 -15 -7 -17 -5 -2 -39 -50 -77 -108 -38 -58
-78 -113 -88 -123 -10 -10 -16 -22 -13 -28 4 -5 2 -9 -2 -9 -5 0 -25 -21 -44
-48 -53 -73 -54 -75 -30 -60 12 7 21 16 21 19 0 4 21 29 48 57 26 28 70 76 97
108 28 31 60 67 73 80 12 13 22 28 22 34 0 6 4 9 9 5 5 -3 12 4 16 15 3 11 11
20 16 20 5 0 9 7 9 15 0 8 4 15 8 15 4 0 26 23 47 52 22 28 44 56 50 62 5 6
23 29 40 51 16 22 33 45 37 50 46 59 78 107 78 114 0 5 4 11 8 13 11 4 130
190 141 222 5 12 15 29 23 37 27 29 156 304 195 419 18 52 63 211 63 223 0 5
-21 -12 -47 -38 -54 -53 -169 -113 -228 -120 -125 -15 -312 2 -425 37 -88 27
-216 89 -294 141 -38 26 -72 47 -76 47 -15 0 -40 -38 -40 -62 0 -61 160 -144
375 -194 104 -24 105 -24 173 -29 35 -3 68 -7 72 -10 5 -3 -1 -16 -13 -29 -12
-13 -55 -67 -96 -120 -41 -53 -78 -96 -83 -96 -4 0 -8 -6 -8 -12 0 -7 -32 -47
-69 -88 l-69 -75 -124 1 c-154 2 -268 11 -356 29 -36 7 -107 51 -125 77 -8 13
-23 32 -33 43 -11 11 -37 43 -59 70 -47 60 -56 67 -75 59 -8 -4 -46 -15 -85
-26 -123 -34 -268 -28 -395 16 -24 8 -49 12 -56 8 -7 -4 -40 -41 -74 -82 -68
-82 -101 -119 -122 -136 -18 -15 -73 -32 -123 -39 -22 -4 -51 -9 -65 -12 -14
-2 -101 -7 -193 -9 l-169 -5 -41 44 c-62 64 -107 117 -107 125 0 4 -22 32 -50
62 -27 30 -49 58 -50 63 0 4 -8 15 -17 25 -34 34 -78 94 -78 105 0 7 7 10 15
8 26 -6 55 -2 200 29 122 26 195 47 242 70 23 11 45 20 50 20 18 0 108 73 110
88 3 35 -3 55 -20 68 -23 18 -21 19 -77 -22z m1212 -556 c-3 -7 -5 -2 -5 12 0
14 2 19 5 13 2 -7 2 -19 0 -25z m98 -358 c3 -5 1 -10 -4 -10 -6 0 -11 5 -11
10 0 6 2 10 4 10 3 0 8 -4 11 -10z"/>
<path d="M2516 1383 c-2 -3 12 -21 31 -41 19 -20 46 -56 60 -80 23 -38 25 -51
20 -110 -2 -37 -10 -80 -17 -97 -19 -45 -24 -89 -25 -205 0 -118 11 -231 31
-320 3 -13 7 -40 10 -60 10 -86 17 -117 31 -155 8 -22 15 -46 15 -52 2 -22 44
-54 74 -57 53 -5 85 13 106 61 21 48 25 62 43 173 5 34 22 130 31 180 26 150
23 323 -8 435 -38 137 -28 189 52 276 22 24 40 47 40 50 0 6 -488 8 -494 2z"/>
</g>
</svg>
